<svg id="Слой_1" data-name="Слой 1" xmlns="http://www.w3.org/2000/svg" viewBox="0 0 261.63 82.03"><defs><style>.cls-1{fill:#9f9cac;}.cls-2{fill:#fefefe;}</style></defs><title>5Монтажная область 1-1000</title><rect class="cls-1" y="0.06" width="125.09" height="53.95"/><rect class="cls-1" y="62.3" width="261.63" height="1.43"/><path class="cls-2" d="M47.28,27h-4.6m0,0h0m0,0h4.59m-4.59.55V26.47a15.75,15.75,0,1,0,0,1.11Zm4.6,0a15.74,15.74,0,0,0,31.3,1.75H63v-4.6H78.87A20.34,20.34,0,0,1,108.46,9a20.45,20.45,0,0,1,7.26,6.38L112,18a15.75,15.75,0,0,0-28.64,9v0h0v0a15.75,15.75,0,0,0,28.64,9l3.75,2.62a20.33,20.33,0,0,1-31,2.73c-.47-.48-.93-1-1.36-1.51v7.46H78.74V39.9c-.43.53-.89,1-1.36,1.51a20.35,20.35,0,0,1-28.76,0,20.56,20.56,0,0,1-3.65-5,20.56,20.56,0,0,1-3.65,5,20.33,20.33,0,1,1,0-28.76,20.56,20.56,0,0,1,3.65,5,20.33,20.33,0,0,1,34.68-2.25L75.9,18a15.75,15.75,0,0,0-28.63,8.48c0,.19,0,.37,0,.56S47.27,27.4,47.27,27.58Zm0-.55h0"/><polygon class="cls-1" points="135.16 13.14 137.46 13.14 137.46 6.39 142.82 13.14 145.74 13.14 140.01 6.15 145.4 0.06 142.63 0.06 137.46 6.26 137.46 0.06 135.16 0.06 135.16 13.14"/><path class="cls-1" d="M155.38,13.14h2.28V.06h-8.25l-.19,2.61c-.58,7.89-1.91,8.32-2.92,8.19l-.06,2.28c2.59.37,4.29-.86,5.06-8.47l.26-2.46h3.82Z"/><polygon class="cls-1" points="163.31 13.14 170.18 3.85 170.18 13.14 172.48 13.14 172.48 0.06 170.46 0.06 163.59 9.37 163.59 0.06 161.29 0.06 161.29 13.14 163.31 13.14"/><polygon class="cls-1" points="184.41 13.14 186.69 13.14 186.69 0.06 184.41 0.06 184.41 5.39 178.42 5.39 178.42 0.06 176.12 0.06 176.12 13.14 178.42 13.14 178.42 7.54 184.41 7.54 184.41 13.14"/><polygon class="cls-1" points="192.34 13.14 199.21 3.85 199.21 13.14 201.51 13.14 201.51 0.06 199.49 0.06 192.62 9.37 192.62 0.06 190.32 0.06 190.32 13.14 192.34 13.14"/><polygon class="cls-1" points="205.15 13.14 207.45 13.14 207.45 6.39 212.8 13.14 215.72 13.14 209.99 6.15 215.38 0.06 212.62 0.06 207.45 6.26 207.45 0.06 205.15 0.06 205.15 13.14"/><path class="cls-1" d="M222.42,3l1.91,4.66h-3.84Zm-6.49,10.16h2.32l1.36-3.35h5.6l1.37,3.35H229L223.49,0h-2Z"/><path class="cls-1" d="M139.15,24.94l.2-2.28H143v8.78H137.5a15.35,15.35,0,0,0,1.65-6.5m-5.58,11h2.15V33.59h9.16v2.34H147V31.44h-1.78V20.51h-8.12L137,23.13c-.23,4.87-1.48,7.64-2,8.31h-1.4Z"/><path class="cls-1" d="M150.3,27a4.39,4.39,0,1,1,8.78,0,4.3,4.3,0,0,1-4.4,4.61A4.43,4.43,0,0,1,150.3,27m-2.43,0a6.5,6.5,0,0,0,6.81,6.76A6.6,6.6,0,0,0,161.51,27a6.82,6.82,0,0,0-13.64,0Z"/><polygon class="cls-1" points="163.75 33.59 166.05 33.59 166.05 26.84 171.4 33.59 174.32 33.59 168.59 26.6 173.98 20.51 171.21 20.51 166.05 26.71 166.05 20.51 163.75 20.51 163.75 33.59"/><polygon class="cls-1" points="175.43 22.66 179.68 22.66 179.68 33.59 181.98 33.59 181.98 22.66 186.23 22.66 186.23 20.51 175.43 20.51 175.43 22.66"/><path class="cls-1" d="M189.09,27a4.39,4.39,0,1,1,8.78,0,4.3,4.3,0,0,1-4.4,4.61A4.43,4.43,0,0,1,189.09,27m-2.43,0a6.5,6.5,0,0,0,6.81,6.76A6.6,6.6,0,0,0,200.3,27a6.52,6.52,0,0,0-6.83-6.76A6.59,6.59,0,0,0,186.66,27Z"/><path class="cls-1" d="M206.7,22.6c1.57,0,2.41.68,2.41,2s-1.06,2.12-2.43,2.12c-.52,0-1.08,0-1.63-.09v-4c.62,0,1.18,0,1.65,0m-1.65,11V28.86c.56.05,1.31.05,1.71.05,3.12,0,4.79-2,4.79-4.25s-1.22-4.21-5.08-4.21l-3.72,0v13.1Z"/><path class="cls-1" d="M217.4,23.43l1.9,4.66h-3.83Zm-6.5,10.16h2.32l1.37-3.35h5.59l1.37,3.35H224l-5.54-13.14h-2Z"/><polygon class="cls-1" points="135.16 54.04 137.46 54.04 137.46 43.11 142.56 43.11 142.56 40.96 135.16 40.96 135.16 54.04"/><path class="cls-1" d="M146.05,47.49a4.39,4.39,0,1,1,8.78,0,4.29,4.29,0,0,1-4.4,4.61,4.43,4.43,0,0,1-4.38-4.61m-2.44,0a6.5,6.5,0,0,0,6.82,6.76,6.6,6.6,0,0,0,6.83-6.76,6.51,6.51,0,0,0-6.83-6.75A6.58,6.58,0,0,0,143.61,47.49Z"/><path class="cls-1" d="M163.23,43.06c1.57,0,2.42.67,2.42,2s-1.07,2.11-2.44,2.11c-.52,0-1.08,0-1.62-.09v-4l1.64,0m-1.64,11V49.31c.56.06,1.31.06,1.7.06,3.12,0,4.79-2,4.79-4.25s-1.22-4.21-5.07-4.21l-3.73,0V54Z"/><path class="cls-1" d="M179.79,41h-2.3v5.62a4.41,4.41,0,0,1-2.51.84c-1.29,0-2.3-.6-2.3-2.69V41h-2.3v4.42c0,3.12,2,4.19,4,4.19a5.43,5.43,0,0,0,3.12-.9V54h2.3Z"/><path class="cls-1" d="M188,43.88l1.91,4.66H186.1ZM181.53,54h2.32l1.37-3.35h5.59L192.18,54h2.45l-5.54-13.13h-2Z"/><polygon class="cls-1" points="196.39 54.04 198.69 54.04 198.69 47.3 204.04 54.04 206.96 54.04 201.23 47.05 206.62 40.96 203.85 40.96 198.69 47.17 198.69 40.96 196.39 40.96 196.39 54.04"/><path class="cls-1" d="M209.69,47.49a4.39,4.39,0,1,1,8.78,0,4.29,4.29,0,0,1-4.4,4.61,4.43,4.43,0,0,1-4.38-4.61m-2.43,0a6.5,6.5,0,0,0,6.81,6.76,6.61,6.61,0,0,0,6.84-6.76,6.51,6.51,0,0,0-6.84-6.75A6.58,6.58,0,0,0,207.26,47.49Z"/><path class="cls-1" d="M227.31,43c1.23,0,2.06.56,2.06,1.63a1.72,1.72,0,0,1-2,1.74h-1.55V43.09C226.28,43.06,226.78,43,227.31,43Zm.18,5.37c1.44,0,2.29.56,2.29,1.67s-.85,1.89-2.4,1.89a11.91,11.91,0,0,1-1.51-.1V48.41ZM223.56,54c.77,0,2.46.09,3.65.09,2.77,0,4.87-1.24,4.87-3.93a2.92,2.92,0,0,0-2.3-3v0a3.08,3.08,0,0,0,1.87-3c0-1.81-1.18-3.23-4.31-3.23-1.31,0-3.05,0-3.78.09Z"/><path class="cls-1" d="M236.57,47.49a4.39,4.39,0,1,1,8.78,0A4.29,4.29,0,0,1,241,52.1a4.43,4.43,0,0,1-4.38-4.61m-2.43,0A6.5,6.5,0,0,0,241,54.25a6.6,6.6,0,0,0,6.83-6.76A6.51,6.51,0,0,0,241,40.74,6.58,6.58,0,0,0,234.14,47.49Z"/><path class="cls-1" d="M252.52,37.78c.13,1.59,1.5,2.68,3.74,2.68,2.06,0,3.6-1.07,3.65-2.68h-2.15c-.07.8-.66,1.08-1.5,1.08s-1.44-.35-1.59-1.08ZM252.46,54l6.87-9.29V54h2.3V41h-2l-6.87,9.31V41h-2.3V54Z"/><path class="cls-1" d="M254.79,71.73h-2v8.79c.52,0,1.46,0,2.36,0,2.33,0,3.63-1.27,3.63-3.15s-1-3-3.2-3a6.35,6.35,0,0,0-.78,0Zm.61,4.59c.74,0,1.24.35,1.24,1.13s-.44,1.21-1.26,1.21a4.4,4.4,0,0,1-.59,0V76.38A3.88,3.88,0,0,1,255.4,76.32Zm4.23,4.2h2V71.73h-2Zm-17.82-6.9h2.63v6.9h2v-6.9h2.64V71.73h-7.28Zm-9.9,2.51a2.54,2.54,0,1,1,5.07,0,2.43,2.43,0,0,1-2.53,2.66A2.58,2.58,0,0,1,231.91,76.13Zm-2.13,0a4.38,4.38,0,0,0,4.67,4.54,4.46,4.46,0,0,0,4.67-4.54,4.39,4.39,0,0,0-4.67-4.55A4.46,4.46,0,0,0,229.78,76.13Zm-3.58,2a3.22,3.22,0,0,1-1.91.64,2.55,2.55,0,0,1-2.66-2.66,2.41,2.41,0,0,1,2.46-2.66,3.17,3.17,0,0,1,1.79.53l.9-1.5a3.94,3.94,0,0,0-2.69-.92,4.28,4.28,0,0,0-4.6,4.55,4.34,4.34,0,0,0,4.61,4.54,4,4,0,0,0,2.86-1Zm-13.95-3.84,1,2.48h-2Zm-4.5,6.21h2l.73-1.84H214l.73,1.84h2.14l-3.65-8.79h-1.79Zm-5.49-6.93c.72,0,1.22.24,1.22,1a1,1,0,0,1-1.18,1.08c-.29,0-.63,0-.92-.06v-2Zm-.88,6.93v-3a9.16,9.16,0,0,0,1,0,3,3,0,0,0,3.26-2.95c0-1.52-.88-2.91-3.56-2.91l-2.68,0v8.79Zm-13.13,0h2V76.34l3,4.18h2.55l-3.57-4.73,3.3-4.06h-2.41l-2.87,3.83V71.73h-2Zm-17.63-11c0,1.21,1,2,2.66,2s2.64-.79,2.61-2H174c0,.54-.25.63-.73.63s-.78-.15-.78-.63Zm.37,11,3.9-5.46v5.46h2V71.73h-1.76l-3.89,5.46V71.73h-2v8.79Zm-13-4.39a2.54,2.54,0,1,1,5.07,0,2.43,2.43,0,0,1-2.53,2.66A2.58,2.58,0,0,1,158,76.13Zm-2.13,0a4.38,4.38,0,0,0,4.67,4.54,4.46,4.46,0,0,0,4.67-4.54,4.39,4.39,0,0,0-4.67-4.55A4.46,4.46,0,0,0,155.83,76.13Zm-6.92-2.56c.49,0,1,.26,1,.79s-.41.85-.93.85h-.66V73.62A4.13,4.13,0,0,1,148.91,73.57Zm.15,3.4c.65,0,1.06.24,1.06.79s-.38.93-1.16.93a2.17,2.17,0,0,1-.68-.08V77Zm-2.79,3.53c.51,0,1.68.07,2.52.07,1.91,0,3.34-.86,3.34-2.71a2,2,0,0,0-1.25-2v0a2.17,2.17,0,0,0,1-2c0-1.22-.85-2.19-2.95-2.19-1,0-2.17,0-2.66.08ZM135,76.13a2.54,2.54,0,1,1,5.08,0,2.44,2.44,0,0,1-2.54,2.66A2.58,2.58,0,0,1,135,76.13Zm-2.13,0a4.38,4.38,0,0,0,4.67,4.54,4.46,4.46,0,0,0,4.67-4.54,4.39,4.39,0,0,0-4.67-4.55A4.46,4.46,0,0,0,132.86,76.13Zm-6.8-2.54c.72,0,1.22.24,1.22,1a1,1,0,0,1-1.18,1.08,9.07,9.07,0,0,1-.91-.06v-2Zm-.87,6.93v-3a9,9,0,0,0,1,0,3,3,0,0,0,3.26-2.95c0-1.52-.88-2.91-3.56-2.91l-2.68,0v8.79ZM111.9,76.13a2.54,2.54,0,1,1,5.07,0,2.43,2.43,0,0,1-2.53,2.66A2.58,2.58,0,0,1,111.9,76.13Zm-2.13,0a4.38,4.38,0,0,0,4.67,4.54,4.46,4.46,0,0,0,4.67-4.54,4.39,4.39,0,0,0-4.67-4.55A4.46,4.46,0,0,0,109.77,76.13Zm-8.09-1,.14-1.48h1.78v5h-2.86A9.68,9.68,0,0,0,101.68,75.1ZM97.58,82h1.89V80.52h5.45V82h1.88V78.64h-1.19V71.73H99.87l-.08,1.76a10.64,10.64,0,0,1-1.26,5.15h-1Zm-6.46-1.36c1.57,0,3.15-1,3.15-2.61A2,2,0,0,0,92.82,76v0a2.26,2.26,0,0,0,1.11-1.87,2.42,2.42,0,0,0-2.71-2.48,3.65,3.65,0,0,0-3,1.45l1.16,1.35A1.85,1.85,0,0,1,91,73.47c.57,0,1,.26,1,.81s-.5.8-1.08.8h-.75V77h.8c1,0,1.37.38,1.37.89,0,.72-.69.93-1.23.93a2.86,2.86,0,0,1-2-1.07L88,79.09A3.51,3.51,0,0,0,91.12,80.67ZM73.89,74.31l1,2.48h-2Zm-4.5,6.21h2l.73-1.84h3.48l.73,1.84H78.5l-3.66-8.79H73.05Zm-10,0h2V76.34l3,4.18H67l-3.57-4.73,3.3-4.06H64.28l-2.87,3.83V71.73h-2Zm-10.6,0,3.89-5.46v5.46h2V71.73H52.94l-3.89,5.46V71.73H47v8.79Zm-8.47,0h2V71.73h-2V75.1h-3.2V71.73h-2v8.79h2V77h3.2Zm-15.81,0,3.9-5.46v5.46h2V71.73H28.67l-3.89,5.46V71.73h-2v8.79Zm-8.46,0h2V71.73H12.24l-.12,1.76c-.35,4.87-1.11,5.15-1.84,5l0,2c2.06.34,3.16-.61,3.69-5.25l.19-1.65h1.93ZM0,80.52H2V76.34l3,4.18H7.56L4,75.79l3.3-4.06H4.88L2,75.56V71.73H0Z"/></svg>